
<svg width="24" height="24" viewBox="0 0 24 24" fill="none" xmlns="http://www.w3.org/2000/svg">
  <path d="M10.3728 6.93664H13.9467L8.15211 17.0634H4.57812L10.3728 6.93664Z" fill="#F5A623"/>
  <path d="M12.0126 12.2523H15.5865L13.2209 16.4623C13.1284 16.6306 13.0091 16.7794 12.8686 16.9006C12.728 17.0217 12.5684 17.113 12.3981 17.1693C12.2277 17.2256 12.0495 17.2457 11.8726 17.2284C11.6957 17.2111 11.5236 17.1568 11.3665 17.0689H11.3661L8.57812 15.4199L12.0126 12.2523Z" fill="#F5A623"/>
  <path d="M13.9467 6.93664L11.3656 6.93452C11.0337 6.93436 10.7094 7.04063 10.437 7.2406C10.1646 7.44057 9.95702 7.72389 9.84296 8.05163L7.23398 13.9348C7.17175 14.0802 7.14165 14.2365 7.14584 14.394C7.15003 14.5515 7.18842 14.7057 7.25831 14.8474C7.32821 14.989 7.42796 15.1149 7.54983 15.2164C7.67171 15.318 7.81285 15.3928 7.96499 15.4364L11.3176 17.0685C11.4747 17.1564 11.6469 17.2107 11.8237 17.228C12.0006 17.2453 12.1788 17.2252 12.3492 17.1689C12.5195 17.1126 12.6791 17.0213 12.8197 16.9002C12.9603 16.779 13.0794 16.6302 13.1719 16.4619L18.957 6.93664H13.9467Z" fill="#FB4D8A"/>
  <path d="M15.5869 12.2519L19.0693 15.1791C19.2125 15.2907 19.3322 15.4317 19.4207 15.5932C19.5093 15.7546 19.5648 15.9328 19.5836 16.1173C19.6024 16.3019 19.5842 16.4886 19.5302 16.6652C19.4762 16.8419 19.3877 17.0046 19.2701 17.1428L17.3594 19.4733L13.9453 16.4615L15.5869 12.2519Z" fill="#042D70"/>
</svg>
