
<svg width="24" height="24" viewBox="0 0 24 24" fill="none" xmlns="http://www.w3.org/2000/svg">
  <g clip-path="url(#clip0_123_456)">
    <path d="M20.0773 7.26092C20.0773 9.15425 19.1045 10.5951 17.2112 11.4504C16.6779 11.7053 16.0561 11.8866 15.3805 11.9774L15.2438 12.0682L15.3346 12.6823C15.5192 13.8857 15.4283 15.1353 14.9873 16.2479C14.5464 17.3606 13.7369 18.2158 12.6243 18.7568C11.5571 19.2978 10.2621 19.3432 9.05867 18.7114C8.88326 18.6206 8.61325 18.3959 8.4832 18.213C8.4832 18.3054 8.4832 18.3959 8.52857 18.4869C8.57356 18.5777 8.61855 18.6683 8.66355 18.7592C8.93356 19.3277 9.36597 19.8688 9.88415 20.2189C10.4023 20.5691 11.5149 21.0193 12.0331 21.1102C12.5513 21.201 13.2269 21.2464 14.0365 21.2464C15.9298 21.2464 16.9516 21.1556 18.072 20.8508C19.1846 20.5461 20.1156 20.0505 20.8366 19.3296C21.5576 18.6086 22.0533 17.6776 22.358 16.565C22.6628 15.4524 22.7536 14.4305 22.7536 12.5372C22.7536 10.6895 22.5238 9.33418 22.0056 8.35854C21.5329 7.42854 20.9089 7.21763 20.0769 7.26087L20.0773 7.26092Z" fill="#27346A"/>
    <path d="M4.29146 7.89861C4.20065 7.48447 4.29127 7.03415 4.51987 6.70414C4.65002 6.52873 4.82523 6.39878 5.04522 6.31342L5.13624 6.26843C5.22596 6.22343 5.36056 6.17844 5.49561 6.17844H10.4022C11.4694 6.17844 12.22 6.35385 12.8501 6.75107C13.3229 7.05518 13.7096 7.49485 13.914 8.0734C14.1639 8.65195 14.2548 9.36761 14.2548 10.2225C14.2548 11.3351 14.0794 12.2357 13.7746 12.9113C13.4698 13.5869 12.9742 14.0733 12.3437 14.378C11.7131 14.6828 10.9467 14.8583 10.0914 14.9037C9.78724 14.9491 9.5218 14.9491 9.21769 14.9491H9.12684H7.07597C6.62601 14.9491 6.31256 15.2172 6.1825 15.6597C6.13751 15.7959 6.04676 16.1914 5.95601 16.6413C5.7352 17.7087 5.51439 18.776 5.47403 18.9513C5.42903 19.1267 5.33828 19.3022 5.20277 19.4322C5.06736 19.5676 4.79273 19.7936 4.43236 19.7936H2.83332C2.60788 19.7936 2.38242 19.703 2.20165 19.5222C2.02089 19.3415 1.93035 19.1161 2.02089 18.8906L4.29125 7.89889L4.29146 7.89861Z" fill="#27346A"/>
    <path d="M13.9141 8.07246C13.8233 8.07246 13.7325 8.07246 13.6417 8.07246C13.4663 8.07246 13.3301 8.07246 13.1547 8.02747C13.0639 7.98247 12.9277 7.98247 12.8369 7.89172C12.7006 7.84673 12.5707 7.80173 12.4344 7.75674C11.7133 7.40591 10.9469 7.40591 10.0471 7.40591H6.394C5.98772 7.40591 5.62754 7.67592 5.53163 8.08223L5.48664 8.26299L5.39589 8.66021L3.60429 17.617C3.51354 17.9671 3.55836 18.3643 3.78381 18.6891C4.05382 19.0591 4.46895 19.2345 4.97787 19.2345H6.7226C7.13773 19.2345 7.49808 18.9645 7.59862 18.5581C7.64361 18.3827 7.73436 17.9854 7.82511 17.5882C8.00588 16.6422 8.23133 15.4392 8.27632 15.2638C8.32131 15.0884 8.41206 14.9521 8.54747 14.8159C8.68288 14.6797 8.95807 14.4997 9.31862 14.4997H9.40937H9.50012C10.4455 14.4997 11.3027 14.3699 12.0237 14.0651C12.7901 13.7603 13.4203 13.274 13.9385 12.5984C14.3812 12.0348 14.6966 11.3345 14.9221 10.5233C15.0583 10.0733 15.1491 9.62333 15.1491 9.17337C15.1491 8.76709 15.1038 8.36082 15.0129 8.09081C14.7884 8.0912 14.3367 8.09101 13.9141 8.07274V8.07246Z" fill="#2790C3"/>
    <path d="M11.47 8.17202C11.3337 8.12703 11.1583 8.12703 10.992 8.08204C10.8557 8.08204 10.6802 8.08204 10.5439 8.08204H10.3231H5.53223C5.39683 8.08204 5.30626 8.12685 5.21551 8.17185C5.0347 8.30725 4.89947 8.53253 4.8539 8.80254L4.80891 8.98313L2.97177 17.9309L2.92678 18.157C2.92678 18.4724 3.10737 18.7424 3.37757 18.8787C3.51297 18.9239 3.64838 18.9239 3.78378 18.9239H5.70307C6.12749 18.9239 6.48784 18.6084 6.58824 18.2021C6.63323 18.0267 6.72398 17.6294 6.81473 17.2322C6.9955 16.2408 7.22095 15.0832 7.26594 14.9078C7.31093 14.7324 7.40168 14.5961 7.53709 14.4599C7.67249 14.3237 7.94268 14.1427 8.30323 14.1427H8.39398H8.48473C9.43027 14.1427 10.2874 14.013 11.0084 13.7082C11.7748 13.4034 12.405 12.9171 12.9233 12.2415C13.366 11.6779 13.6814 11.0023 13.9068 10.1927C14.043 9.74276 14.1338 9.2928 14.1338 8.84301C14.1338 8.57318 14.1338 8.30318 14.088 8.07791C13.9971 8.03274 13.906 7.98775 13.8152 7.98775C13.7245 7.9423 13.633 7.9423 13.5422 7.9423C13.3668 7.9423 13.186 7.89731 13.0506 7.89731C12.9144 7.85196 12.7781 7.85196 12.6417 7.85196C12.4664 7.85196 12.2909 7.80697 12.1092 7.80697C11.8844 7.80697 11.6637 7.76198 11.4429 7.76198C11.47 7.89721 11.47 8.03261 11.47 8.17257V8.17202Z" fill="#1F264F"/>
  </g>
  <defs>
    <clipPath id="clip0_123_456">
      <rect width="20.8" height="15.12" fill="white" transform="translate(2 6.08)"/>
    </clipPath>
  </defs>
</svg>
