
<svg width="24" height="24" viewBox="0 0 24 24" fill="none" xmlns="http://www.w3.org/2000/svg">
  <path d="M13.4764 11.1543C13.4764 10.3452 14.1292 9.9788 15.2765 9.9788C16.8048 9.9788 18.6952 10.4555 20.1552 11.2621V6.96582C18.5905 6.32095 17.0368 6.03516 15.4833 6.03516C11.7719 6.03516 9.12012 8.11669 9.12012 11.3121C9.12012 16.0516 15.5058 15.2205 15.5058 17.2808C15.5058 18.2342 14.6953 18.6057 13.4764 18.6057C11.8204 18.6057 9.71192 17.902 8.10938 17.0096V21.3633C9.91943 22.119 11.7657 22.4414 13.4764 22.4414C17.2953 22.4414 19.9995 20.4116 19.9995 17.1763C19.9995 12.0497 13.4764 13.0781 13.4764 11.1543Z" fill="#5433ED"/>
</svg>
